<?xml version="1.0" standalone="no"?>
<!DOCTYPE svg PUBLIC "-//W3C//DTD SVG 20010904//EN"
 "http://www.w3.org/TR/2001/REC-SVG-20010904/DTD/svg10.dtd">
<svg version="1.0" xmlns="http://www.w3.org/2000/svg"
 width="542.000000pt" height="432.000000pt" viewBox="0 0 542.000000 432.000000"
 preserveAspectRatio="xMidYMid meet">
<metadata>
Created by potrace 1.15, written by Peter Selinger 2001-2017
</metadata>
<g transform="translate(0.000000,432.000000) scale(0.100000,-0.100000)"
fill="#000000" stroke="none">
<path d="M2482 4159 c-699 -62 -1301 -453 -1647 -1068 -44 -80 -115 -233 -138
-302 -5 -15 -12 -15 -74 -3 -147 29 -147 29 -184 -4 l-34 -30 -3 -896 c-3
-994 -5 -950 62 -982 33 -16 41 -16 163 9 70 14 130 24 131 22 2 -2 59 -155
127 -340 67 -185 125 -338 128 -341 3 -3 74 10 159 30 175 40 310 66 343 66
13 0 59 -21 102 -47 162 -96 358 -175 553 -223 188 -45 269 -53 550 -48 232 4
266 7 380 32 224 50 463 143 642 252 l60 36 71 -11 c40 -7 158 -31 262 -55
l190 -43 115 343 115 343 49 11 c111 24 203 101 258 216 55 116 56 139 60 891
3 688 3 692 -18 720 -38 51 -65 57 -158 39 -112 -22 -111 -22 -125 27 -23 76
-147 320 -218 427 -357 539 -932 878 -1577 930 -144 11 -208 11 -344 -1z m498
-134 c217 -36 379 -89 575 -188 432 -217 759 -575 945 -1034 l34 -83 -23 -24
c-15 -16 -25 -42 -29 -72 l-5 -47 -38 109 c-191 545 -627 982 -1165 1168 -961
331 -1999 -142 -2384 -1087 -23 -56 -25 -58 -54 -51 -17 3 -33 8 -35 10 -6 6
47 139 91 228 289 580 868 997 1493 1075 50 6 104 13 120 15 64 9 385 -4 475
-19z m-2345 -1335 c55 -11 103 -24 107 -28 4 -4 9 -113 10 -242 2 -129 6 -228
10 -220 3 8 32 105 62 215 31 110 62 205 69 211 9 9 45 7 150 -11 76 -12 143
-27 148 -32 5 -5 -36 -98 -104 -233 -141 -281 -190 -396 -183 -432 8 -42 130
-362 232 -608 51 -124 89 -228 86 -232 -11 -11 -316 -56 -325 -48 -4 4 -35
103 -68 221 -33 118 -64 223 -69 234 -5 12 -9 -76 -9 -226 -1 -199 -4 -249
-15 -258 -18 -15 -222 -55 -242 -47 -12 5 -14 126 -14 879 0 481 3 877 6 880
4 4 16 4 28 2 12 -3 66 -14 121 -25z m4193 -660 c3 -703 0 -752 -43 -847 -68
-151 -177 -210 -328 -178 -202 42 -336 180 -357 367 -11 93 -13 288 -4 312 5
13 26 16 124 16 82 0 121 -4 128 -12 6 -7 12 -82 14 -168 3 -135 6 -160 24
-190 36 -63 109 -66 141 -7 17 29 18 82 21 674 2 507 5 643 15 652 18 14 184
49 227 47 l35 -1 3 -665z m-3306 530 c48 -6 95 -13 103 -16 13 -5 15 -72 15
-534 0 -447 2 -534 15 -571 29 -82 71 -101 116 -53 l24 26 5 556 5 557 116 -3
c64 -2 129 -7 145 -11 l29 -7 0 -560 c0 -511 -2 -563 -18 -605 -38 -99 -114
-165 -232 -202 -58 -18 -95 -22 -210 -22 -126 0 -144 2 -182 22 -54 29 -79 63
-92 124 -12 57 -16 1301 -4 1313 4 4 23 5 43 2 19 -3 74 -11 122 -16z m937
-64 c26 -12 26 -11 82 -199 18 -61 36 -102 39 -95 4 7 22 72 40 145 18 73 38
137 45 143 8 7 63 10 146 8 125 -3 134 -4 137 -23 1 -11 -26 -85 -61 -165 -35
-80 -87 -204 -115 -276 l-52 -132 0 -350 c0 -296 -2 -351 -15 -362 -18 -15
-251 -21 -279 -7 -17 8 -18 24 -11 336 l8 328 -28 84 c-16 46 -71 185 -123
309 -52 124 -95 234 -94 244 0 11 7 23 14 27 18 12 237 -1 267 -15z m1025 -23
c27 -83 65 -256 156 -713 109 -551 125 -638 118 -645 -3 -3 -67 1 -143 10 -75
8 -138 15 -140 15 -2 0 -12 28 -24 62 -18 58 -29 97 -45 169 -5 22 -13 27 -52
33 -71 9 -78 1 -98 -113 -25 -143 -19 -139 -198 -133 -121 3 -148 7 -148 19 0
8 11 58 25 111 13 53 47 210 75 347 88 435 186 835 211 860 9 9 98 20 201 23
l46 2 16 -47z m-434 -1383 c375 -20 712 -59 1030 -121 133 -26 329 -71 367
-84 8 -3 -19 -97 -84 -290 l-95 -287 -27 6 c-14 3 -84 18 -156 35 -445 101
-878 145 -1415 145 -558 1 -1016 -48 -1463 -155 -71 -17 -132 -27 -137 -23 -4
5 -53 133 -108 284 -69 189 -96 277 -89 281 17 10 311 74 467 103 524 96 1149
135 1710 106z m-1166 -756 c181 -83 400 -138 628 -156 299 -25 640 35 905 157
72 33 83 36 141 29 34 -3 62 -10 62 -14 0 -13 -234 -119 -340 -154 -404 -132
-865 -128 -1265 11 -112 39 -315 132 -315 144 0 4 17 10 38 12 20 2 44 4 53 5
9 1 51 -14 93 -34z"/>
<path d="M2426 1015 c-6 -17 -66 -415 -66 -440 0 -11 11 -15 39 -15 39 0 40 1
48 43 6 26 14 42 23 42 9 0 18 -16 24 -42 9 -42 10 -43 48 -43 38 0 39 1 34
28 -3 15 -12 78 -21 140 -8 62 -24 154 -35 205 -11 50 -20 92 -20 94 0 2 -15
3 -34 3 -21 0 -36 -6 -40 -15z"/>
<path d="M2657 1023 c-4 -3 -7 -97 -7 -209 0 -184 2 -204 19 -225 16 -20 28
-24 76 -24 50 0 60 3 81 28 24 28 24 31 24 233 l0 204 -40 0 -40 0 0 -174 c0
-182 -3 -206 -26 -206 -11 0 -14 34 -14 190 l0 190 -33 0 c-19 0 -37 -3 -40
-7z"/>
<path d="M2112 1013 c-28 -5 -36 -24 -28 -58 5 -21 12 -25 34 -23 l27 3 12
-180 c7 -99 15 -186 18 -193 3 -8 17 -12 37 -10 39 4 38 -5 24 241 l-8 147 26
0 c24 0 26 4 26 40 l0 40 -72 -1 c-40 -1 -83 -4 -96 -6z"/>
<path d="M2937 1013 c-3 -5 -8 -80 -11 -168 -4 -88 -9 -188 -12 -222 l-6 -63
35 0 c41 0 47 12 47 113 0 50 3 67 14 67 21 0 26 -23 26 -111 l0 -79 40 0 40
0 0 81 c0 76 -10 116 -34 131 -7 5 -3 15 10 30 16 17 23 42 28 96 7 84 -1 105
-45 121 -36 12 -126 15 -132 4z"/>
<path d="M3309 973 c-16 -41 -113 -423 -108 -427 2 -2 21 -6 41 -10 l38 -7 11
46 c15 58 39 61 39 5 0 -34 4 -42 26 -50 58 -23 57 -27 49 177 -4 102 -10 209
-14 237 -6 49 -7 51 -39 54 -27 3 -34 -1 -43 -25z"/>
<path d="M1865 978 c-35 -20 -44 -42 -45 -106 0 -76 14 -103 80 -155 49 -38
73 -88 52 -109 -16 -16 -29 -2 -37 38 -6 34 -8 36 -37 30 -17 -3 -34 -6 -39
-6 -10 0 -2 -51 13 -92 20 -53 81 -72 137 -43 34 17 41 33 41 90 0 66 -15 95
-80 156 -52 48 -60 60 -60 92 0 53 28 50 36 -3 6 -37 9 -40 40 -40 34 0 34 0
34 45 0 51 -20 99 -45 109 -25 9 -68 7 -90 -6z"/>
<path d="M1621 959 c-30 -5 -56 -10 -57 -12 -1 -1 12 -103 30 -227 l32 -225
52 1 c93 3 102 8 102 59 l0 45 -42 -2 c-41 -3 -42 -2 -51 35 -11 46 -4 67 22
67 27 0 31 10 24 54 -5 34 -8 37 -36 34 -28 -3 -32 0 -40 35 -12 50 -4 67 33
67 28 0 30 2 30 40 0 45 0 45 -99 29z"/>
<path d="M3536 962 c-2 -4 -12 -60 -21 -123 -9 -62 -20 -144 -25 -181 -6 -37
-10 -85 -10 -107 0 -40 1 -41 34 -41 l34 0 12 73 c22 137 26 140 35 29 6 -84
10 -104 25 -112 26 -14 60 -12 65 3 5 14 65 413 65 433 0 10 -13 14 -44 14
l-44 0 -7 -67 c-13 -128 -21 -137 -29 -30 -7 79 -11 99 -26 107 -22 12 -57 13
-64 2z"/>
<path d="M3841 921 c-18 -33 -14 -61 9 -61 11 0 23 -6 26 -14 3 -7 -9 -93 -26
-191 -34 -192 -33 -195 21 -195 25 0 25 1 54 173 15 94 32 179 36 188 6 11 17
15 33 12 21 -4 26 0 34 28 5 19 7 37 5 41 -1 3 -36 11 -76 18 -39 6 -80 14
-89 16 -10 3 -21 -3 -27 -15z"/>
<path d="M1330 907 c-36 -10 -45 -16 -43 -32 3 -36 73 -428 76 -432 2 -2 18 0
35 3 37 7 37 11 18 112 -7 40 -11 74 -7 76 18 12 35 -19 50 -91 l17 -78 34 3
c19 2 37 5 39 8 2 2 -4 40 -13 86 -12 62 -22 88 -41 105 -21 19 -23 24 -13 51
9 23 8 47 -1 101 -18 100 -44 116 -151 88z"/>
</g>
</svg>
